<svg width="32" height="26" viewBox="0 0 32 26" fill="none" xmlns="http://www.w3.org/2000/svg">
<path fill-rule="evenodd" clip-rule="evenodd" d="M31.073 3.3521C30.193 4.65718 29.1292 5.76915 27.8815 6.68803C27.8947 6.87447 27.9012 7.15413 27.9012 7.52701C27.9012 9.25824 27.6517 10.9861 27.1526 12.7107C26.6535 14.4353 25.8951 16.0899 24.8772 17.6746C23.8593 19.2594 22.6478 20.661 21.2425 21.8795C19.8372 23.098 18.143 24.0702 16.1598 24.796C14.1766 25.5218 12.0555 25.8846 9.79653 25.8846C6.2373 25.8846 2.9802 24.9192 0.025116 22.9882C0.484795 23.0414 0.997001 23.0681 1.56175 23.0681C4.51683 23.0681 7.15009 22.1492 9.46162 20.3114C8.08259 20.2848 6.84804 19.8553 5.75794 19.023C4.66785 18.1907 3.91924 17.1287 3.51209 15.8369C3.9455 15.9035 4.34608 15.9368 4.71382 15.9368C5.27857 15.9368 5.83674 15.8635 6.38836 15.717C4.91738 15.4107 3.69925 14.6683 2.73393 13.4897C1.7686 12.3112 1.28594 10.9429 1.28594 9.38474V9.30484C2.17903 9.81089 3.13778 10.0839 4.16221 10.1238C3.29538 9.53789 2.60588 8.77216 2.09366 7.82664C1.58145 6.88112 1.32534 5.85572 1.32534 4.75039C1.32534 3.57848 1.61428 2.49315 2.19216 1.49436C3.78134 3.47862 5.71525 5.06667 7.99394 6.25855C10.2726 7.45044 12.7122 8.11296 15.3127 8.24613C15.2076 7.74008 15.155 7.24735 15.155 6.76793C15.155 4.98343 15.7756 3.46197 17.0167 2.2035C18.2579 0.945023 19.7584 0.315796 21.5183 0.315796C23.357 0.315796 24.9068 0.994962 26.1676 2.35331C27.5992 2.07365 28.9453 1.55429 30.2062 0.795212C29.7202 2.32669 28.7878 3.5119 27.4087 4.35088C28.6301 4.21771 29.8516 3.88478 31.073 3.3521Z" fill="#1DA1F2"/>
</svg>
